<svg width="370" height="365" viewBox="0 0 370 365" fill="none" xmlns="http://www.w3.org/2000/svg">
<g clip-path="url(#clip0_823_10531)">
<path d="M313.529 57.4098L313.393 209.083L368.699 177.277L369.214 25.314L313.529 57.4098Z" fill="#082930" stroke="#082930" stroke-width="2.00029" stroke-miterlimit="10" stroke-linecap="round" stroke-linejoin="round"/>
<path d="M271.214 33.3628L271.49 185.77L313.393 209.083L313.529 57.4095L271.214 33.3628Z" fill="#59C1BB" stroke="#082930" stroke-width="2.00029" stroke-miterlimit="10" stroke-linecap="round" stroke-linejoin="round"/>
<path d="M326.95 1.12061L271.214 33.3629L313.529 57.4096L369.213 25.3138L326.95 1.12061Z" fill="white" stroke="#082930" stroke-width="2.00029" stroke-miterlimit="10" stroke-linecap="round" stroke-linejoin="round"/>
<path d="M225.928 185.286L225.792 259.279L281.098 227.473L281.613 153.19L225.928 185.286Z" fill="#082930" stroke="#082930" stroke-width="2.00029" stroke-miterlimit="10" stroke-linecap="round" stroke-linejoin="round"/>
<path d="M183.613 161.24L183.889 235.967L225.792 259.28L225.928 185.286L183.613 161.24Z" fill="#09F1C7" stroke="#082930" stroke-width="2.00029" stroke-miterlimit="10" stroke-linecap="round" stroke-linejoin="round"/>
<path d="M239.35 128.997L183.613 161.239L225.928 185.286L281.613 153.19L239.35 128.997Z" fill="white" stroke="#082930" stroke-width="2.00029" stroke-miterlimit="10" stroke-linecap="round" stroke-linejoin="round"/>
<path d="M134.61 153.923L134.474 312.069L189.78 280.262L190.295 121.826L134.61 153.923Z" fill="#082930" stroke="#082930" stroke-width="2.00029" stroke-miterlimit="10" stroke-linecap="round" stroke-linejoin="round"/>
<path d="M92.2949 129.876L92.5705 288.756L134.473 312.069L134.61 153.923L92.2949 129.876Z" fill="#BDD9E1" stroke="#082930" stroke-width="2.00029" stroke-miterlimit="10" stroke-linecap="round" stroke-linejoin="round"/>
<path d="M148.031 97.6338L92.2949 129.876L134.61 153.923L190.295 121.826L148.031 97.6338Z" fill="white" stroke="#082930" stroke-width="2.00029" stroke-miterlimit="10" stroke-linecap="round" stroke-linejoin="round"/>
<path d="M43.6926 231.829L43.5566 364.082L98.8628 332.276L99.3772 199.733L43.6926 231.829Z" fill="#082930" stroke="#082930" stroke-width="2.00029" stroke-miterlimit="10" stroke-linecap="round" stroke-linejoin="round"/>
<path d="M1.37793 207.782L1.65355 340.769L43.5565 364.082L43.6925 231.829L1.37793 207.782Z" fill="#BDD9E1" stroke="#082930" stroke-width="2.00029" stroke-miterlimit="10" stroke-linecap="round" stroke-linejoin="round"/>
<path d="M57.1139 175.54L1.37793 207.782L43.6925 231.829L99.377 199.733L57.1139 175.54Z" fill="white" stroke="#082930" stroke-width="2.00029" stroke-miterlimit="10" stroke-linecap="round" stroke-linejoin="round"/>
</g>
<defs>
<clipPath id="clip0_823_10531">
<rect width="369" height="364" fill="white" transform="translate(0.795898 0.601074)"/>
</clipPath>
</defs>
</svg>
