<svg width="906" height="239" viewBox="0 0 906 239" fill="none" xmlns="http://www.w3.org/2000/svg">
<path d="M50.6239 234.928C55.6135 234.928 58.1084 233.085 58.1084 229.398V228.423C58.1084 226.254 56.6444 224.031 53.7157 221.754C50.787 219.477 48.2378 216.875 46.0684 213.947C43.899 211.02 43.5733 207.604 45.0919 203.701L54.5289 177.678H145.319L155.081 203.701C156.6 207.604 156.274 211.02 154.105 213.947C151.935 216.875 149.387 219.477 146.458 221.754C143.529 224.031 142.065 226.254 142.065 228.423V229.398C142.065 233.085 144.451 234.928 149.224 234.928H220.489C225.261 234.928 227.648 233.085 227.648 229.398V228.423C227.648 225.82 225.208 222.351 220.327 218.014C215.445 213.676 211.92 208.906 209.75 203.701L131.977 17.9628C127.855 8.63799 121.238 3.97552 112.127 3.97552H78.2839C73.9451 3.97552 71.7759 5.71041 71.7759 9.18013V10.4812C71.7759 11.7824 74.1079 15.4689 78.7721 21.5409C83.4364 27.6129 84.9009 32.9259 83.1654 37.4799L18.4085 203.701C16.239 209.122 12.7676 213.947 7.99493 218.176C3.22222 222.405 0.835938 225.82 0.835938 228.423V229.398C0.835938 233.085 3.22222 234.928 7.99493 234.928H50.6239ZM137.509 156.535H62.3389L99.4359 55.3707L137.509 156.535ZM398.489 234.928C403.913 234.928 407.276 231.784 408.577 225.495L417.038 179.955C418.122 175.184 416.278 172.799 411.506 172.799H407.601C404.563 172.799 401.472 175.022 398.326 179.467C395.181 183.913 392.361 188.738 389.866 193.942C387.371 199.147 383.846 203.972 379.29 208.418C374.734 212.863 369.745 215.086 364.321 215.086H317.462C312.906 215.086 309.489 213.351 307.212 209.881C304.934 206.412 303.794 202.074 303.794 196.87V35.2029C303.794 29.9983 306.127 25.1733 310.791 20.7278C315.455 16.2822 317.787 12.8667 317.787 10.4812V9.18013C317.787 5.71041 315.184 3.97552 309.977 3.97552H248.8C244.027 3.97552 241.641 5.71041 241.641 9.18013V10.4812C241.641 12.8667 243.702 16.2822 247.824 20.7278C251.946 25.1733 254.006 29.9983 254.006 35.2029V203.701C254.006 208.689 251.946 213.514 247.824 218.176C243.702 222.839 241.641 226.254 241.641 228.423V229.398C241.641 233.085 244.027 234.928 248.8 234.928H398.489ZM532.559 234.928C569.873 234.928 600.082 224.411 623.186 203.376C646.291 182.34 657.843 154.474 657.843 119.777C657.843 85.9475 645.043 58.1897 619.444 36.504C593.845 14.8183 559.785 3.97552 517.265 3.97552H443.071C438.081 3.97552 435.586 5.71041 435.586 9.18013V10.4812C435.586 12.6498 437.702 16.0653 441.932 20.7278C446.162 25.3902 448.277 30.2152 448.277 35.2029V203.701C448.277 208.689 446.162 213.514 441.932 218.176C437.702 222.839 435.586 226.254 435.586 228.423V229.398C435.586 233.085 438.081 234.928 443.071 234.928H532.559ZM537.44 215.086H520.844C513.251 215.086 507.34 212.646 503.109 207.767C498.879 202.888 496.764 196.002 496.764 187.111V37.4799C496.764 28.3719 501.102 23.8179 509.78 23.8179H515.963C541.562 23.8179 563.094 35.2029 580.557 57.9729C598.021 80.7429 606.753 108.284 606.753 140.595C606.753 163.799 600.299 182.015 587.391 195.244C574.483 208.472 557.833 215.086 537.44 215.086ZM792.888 238.181C824.996 238.181 851.842 227.122 873.428 205.002C895.013 182.883 905.806 154.8 905.806 120.753C905.806 86.9233 894.959 58.4609 873.265 35.3656C851.571 12.2703 824.453 0.722656 791.912 0.722656C758.069 0.722656 730.572 11.8366 709.42 34.0645C688.268 56.2923 677.692 84.9717 677.692 120.103C677.692 153.282 688.756 181.256 710.884 204.026C733.012 226.796 760.347 238.181 792.888 238.181ZM806.556 217.038C791.804 217.038 778.137 210.369 765.554 197.033C752.971 183.696 743.155 166.618 736.104 145.8C729.054 124.982 725.528 103.513 725.528 81.3935C725.528 63.3943 729.921 48.9734 738.707 38.1305C747.493 27.2876 759.371 21.8662 774.34 21.8662C789.092 21.8662 802.868 28.8056 815.667 42.6845C828.467 56.5633 838.446 73.9661 845.605 94.8928C852.764 115.82 856.344 136.909 856.344 158.161C856.344 175.293 851.788 189.388 842.676 200.448C833.565 211.508 821.525 217.038 806.556 217.038Z" fill="black"/>
</svg>
