<svg width="274" height="274" viewBox="0 0 274 274" fill="none" xmlns="http://www.w3.org/2000/svg">
<path d="M274 142.625V155.991C274 167.048 264.992 176.042 253.917 176.042H240.529C229.454 176.042 220.446 167.048 220.446 155.991V142.625C220.446 132.723 227.69 124.528 237.153 122.915C234.309 81.4781 203.942 46.9352 163.247 38.7317C160.896 47.1993 153.19 53.4676 143.971 53.4676H130.583C121.319 53.4676 113.58 47.1414 111.269 38.6131C70.2845 46.6178 39.6985 81.2272 36.8467 122.917C46.3122 124.53 53.5542 132.725 53.5542 142.627V155.993C53.5542 167.05 44.546 176.043 33.4711 176.043H20.0831C9.00813 176.043 0 167.05 0 155.993V142.627C0 132.705 7.27352 124.501 16.7636 122.91C19.7111 70.479 58.7075 27.0056 110.661 18.4126C111.512 8.13246 120.066 0 130.578 0H143.966C154.521 0 163.105 8.19719 163.894 18.5375C215.529 27.3408 254.291 70.7625 257.229 122.909C266.724 124.5 273.997 132.701 273.997 142.623L274 142.625ZM151.849 121.42C149.164 118.067 146.03 115.76 142.673 114.568C139.017 113.301 135.137 113.301 131.481 114.568C128.124 115.758 124.99 118.067 122.305 121.42L83.5864 170.353C73.888 182.643 73.888 190.688 86.6459 201.113L108.578 220.553H165.575L187.508 201.113C199.818 190.238 200.266 182.643 190.567 170.353L151.849 121.42ZM169.641 234.705C168.758 231.017 165.544 228.45 161.769 228.45H112.85C109.076 228.45 105.781 231.017 104.978 234.705L100.803 253.31C98.3931 263.977 107.549 274 119.919 274H154.621C167.794 274 176.39 264.698 173.819 253.229L169.641 234.705Z" fill="#72A681"/>
</svg>
