<svg width="1064" height="264" viewBox="0 0 1064 264" fill="none" xmlns="http://www.w3.org/2000/svg">
<path d="M120.786 157.48L176.426 15.0002C180.066 15.1735 183.879 15.2602 187.866 15.2602C191.853 15.2602 195.233 15.2602 198.006 15.2602C199.393 15.2602 201.906 15.2602 205.546 15.2602C209.359 15.0869 213.433 15.0002 217.766 15.0002C222.273 15.0002 226.346 15.0002 229.986 15.0002C233.799 14.8269 236.399 14.7402 237.786 14.7402C238.306 17.3402 238.306 20.0269 237.786 22.8002H237.266C229.293 23.6669 223.486 24.5335 219.846 25.4002C216.206 26.0935 213.953 27.8269 213.086 30.6002C212.393 33.2002 212.046 37.5335 212.046 43.6002L214.126 165.02C214.126 170.394 214.299 174.64 214.646 177.76C214.993 180.88 215.946 183.134 217.506 184.52C219.066 185.907 221.579 186.947 225.046 187.64C228.513 188.16 233.453 188.68 239.866 189.2C240.386 191.8 240.386 194.487 239.866 197.26C238.479 197.26 235.879 197.174 232.066 197C228.426 197 224.353 197 219.846 197C215.513 197 211.439 197 207.626 197C203.986 196.827 201.473 196.74 200.086 196.74C198.699 196.74 196.186 196.827 192.546 197C188.906 197 184.919 197 180.586 197C176.253 197 172.266 197 168.626 197C164.986 197.174 162.473 197.26 161.086 197.26C160.913 194.66 160.913 191.974 161.086 189.2H161.606C169.233 188.334 174.779 187.554 178.246 186.86C181.713 185.994 183.793 184.26 184.486 181.66C185.353 178.887 185.786 174.467 185.786 168.4L183.446 29.0402L117.926 196.74C116.713 197.26 114.806 197.607 112.206 197.78C109.606 197.954 107.353 198.04 105.446 198.04L43.826 34.5002L39.666 168.4C39.4927 174.12 39.7527 178.28 40.446 180.88C41.1394 183.307 43.2193 185.04 46.686 186.08C50.1527 187.12 55.9593 188.16 64.106 189.2C64.7993 191.974 64.7993 194.66 64.106 197.26C62.3727 197.26 59.3394 197.174 55.006 197C50.846 197 46.5994 197 42.266 197C38.106 196.827 35.0727 196.74 33.166 196.74C32.126 196.74 30.046 196.827 26.926 197C23.9793 197 20.686 197 17.046 197C13.406 197 10.026 197 6.90602 197C3.95935 197.174 1.96602 197.26 0.926016 197.26C0.579349 194.487 0.579349 191.8 0.926016 189.2C9.07268 188.16 14.8793 187.12 18.346 186.08C21.8127 185.04 23.9793 182.96 24.846 179.84C25.886 176.72 26.4927 171.78 26.666 165.02L31.606 43.6002C31.9527 37.5335 31.6927 33.2002 30.826 30.6002C29.9593 28.0002 27.6194 26.2669 23.806 25.4002C20.166 24.3602 14.0994 23.4935 5.60602 22.8002C5.43268 20.0269 5.43268 17.3402 5.60602 14.7402C11.4994 14.7402 17.566 14.8269 23.806 15.0002C30.046 15.1735 36.9794 15.2602 44.606 15.2602C47.206 15.2602 50.6727 15.2602 55.006 15.2602C59.3394 15.2602 63.326 15.1735 66.966 15.0002L120.786 157.48Z" fill="black"/>
<path d="M344.581 171.78C346.314 173.86 347.614 175.854 348.481 177.76C334.094 192.667 317.628 200.12 299.081 200.12C287.121 200.12 276.894 197.26 268.401 191.54C259.908 185.82 253.321 178.194 248.641 168.66C244.134 159.127 241.881 148.554 241.881 136.94C241.881 124.287 244.481 112.847 249.681 102.62C254.881 92.3935 262.161 84.2469 271.521 78.1802C281.054 72.1135 291.974 69.0802 304.281 69.0802C310.694 69.0802 317.194 70.0335 323.781 71.9402C330.368 73.6735 335.914 76.4469 340.421 80.2602C344.928 84.0735 347.181 88.9269 347.181 94.8202C347.181 99.5002 345.794 103.054 343.021 105.48C340.248 107.907 336.954 109.12 333.141 109.12C327.941 109.12 323.521 106.78 319.881 102.1C316.241 97.2469 314.421 90.8335 314.421 82.8602C311.301 80.7802 307.141 79.7402 301.941 79.7402C295.701 79.7402 290.414 81.3002 286.081 84.4202C281.921 87.5402 278.454 91.7002 275.681 96.9002C273.081 102.1 271.174 107.734 269.961 113.8C268.748 119.694 268.141 125.5 268.141 131.22C268.141 140.927 269.788 149.594 273.081 157.22C276.374 164.847 281.228 170.914 287.641 175.42C294.054 179.754 302.028 181.92 311.561 181.92C317.108 181.92 322.481 181.14 327.681 179.58C333.054 178.02 338.688 175.42 344.581 171.78Z" fill="black"/>
<path d="M499.984 198.82L384.284 46.9802V158.26C384.284 164.847 384.457 169.96 384.804 173.6C385.15 177.067 386.19 179.754 387.924 181.66C389.657 183.394 392.344 184.867 395.984 186.08C399.624 187.294 404.824 188.247 411.584 188.94C411.93 191.714 411.93 194.487 411.584 197.26C406.384 197.26 400.577 197.174 394.164 197C387.924 196.827 382.637 196.74 378.304 196.74C373.97 196.74 368.597 196.827 362.184 197C355.944 197.174 350.31 197.26 345.284 197.26C344.764 194.66 344.764 191.887 345.284 188.94C351.524 188.074 356.377 187.294 359.844 186.6C363.31 185.734 365.824 184.52 367.384 182.96C368.944 181.227 369.897 178.714 370.244 175.42C370.764 172.127 371.024 167.534 371.024 161.64V55.0402C371.024 48.1069 370.764 42.6469 370.244 38.6602C369.897 34.6735 368.77 31.7269 366.864 29.8202C365.13 27.7402 362.357 26.2669 358.544 25.4002C354.904 24.3602 349.79 23.4935 343.204 22.8002C343.03 20.2002 343.03 17.5135 343.204 14.7402C348.577 14.7402 354.297 14.8269 360.364 15.0002C366.43 15.1735 372.497 15.2602 378.564 15.2602C379.43 15.2602 381.77 15.2602 385.584 15.2602C389.57 15.2602 393.037 15.1735 395.984 15.0002L501.544 153.84V54.0002C501.544 47.4135 501.37 42.3002 501.024 38.6602C500.85 35.0202 499.81 32.3335 497.904 30.6002C494.264 26.7869 485.51 24.3602 471.644 23.3202C471.124 20.3735 471.124 17.6002 471.644 15.0002C474.937 15.0002 478.837 15.0869 483.344 15.2602C488.024 15.2602 492.53 15.3469 496.864 15.5202C501.197 15.5202 504.75 15.5202 507.524 15.5202C511.857 15.5202 517.23 15.4335 523.644 15.2602C530.057 15.0869 535.777 15.0002 540.804 15.0002C541.15 17.6002 541.15 20.2869 540.804 23.0602C532.484 24.1002 526.504 25.3135 522.864 26.7002C519.224 27.9135 516.97 30.2535 516.104 33.7202C515.237 37.1869 514.804 42.8202 514.804 50.6202V197.52C513.071 197.867 510.73 198.127 507.784 198.3C504.837 198.647 502.237 198.82 499.984 198.82Z" fill="black"/>
<path d="M593.897 200.12C581.59 200.12 571.19 197.26 562.697 191.54C554.203 185.82 547.703 178.194 543.197 168.66C538.863 158.954 536.697 148.294 536.697 136.68C536.697 124.72 538.95 113.627 543.457 103.4C548.137 93.1735 554.897 84.9402 563.737 78.7002C572.577 72.2869 583.323 69.0802 595.977 69.0802C611.23 69.0802 623.103 73.6735 631.597 82.8602C640.263 91.8735 644.597 103.574 644.597 117.96C644.597 119.694 644.51 121.254 644.337 122.64C644.337 123.854 644.25 124.894 644.077 125.76L562.177 124.98C562.177 125.674 562.177 126.28 562.177 126.8C562.177 143.787 566.077 157.134 573.877 166.84C581.677 176.547 592.597 181.4 606.637 181.4C618.423 181.4 630.037 177.587 641.477 169.96C643.21 172.04 644.51 174.034 645.377 175.94C630.643 192.06 613.483 200.12 593.897 200.12ZM562.957 115.36L616.777 114.32C616.95 113.974 617.037 113.54 617.037 113.02C617.037 112.327 617.037 111.894 617.037 111.72C617.037 102.36 614.957 94.5602 610.797 88.3202C606.81 82.0802 600.83 78.9602 592.857 78.9602C585.403 78.9602 578.903 81.9935 573.357 88.0602C567.81 94.1269 564.343 103.227 562.957 115.36Z" fill="black"/>
<path d="M707.535 200.12C695.228 200.12 684.828 197.26 676.335 191.54C667.842 185.82 661.342 178.194 656.835 168.66C652.502 158.954 650.335 148.294 650.335 136.68C650.335 124.72 652.588 113.627 657.095 103.4C661.775 93.1735 668.535 84.9402 677.375 78.7002C686.215 72.2869 696.962 69.0802 709.615 69.0802C724.868 69.0802 736.742 73.6735 745.235 82.8602C753.902 91.8735 758.235 103.574 758.235 117.96C758.235 119.694 758.148 121.254 757.975 122.64C757.975 123.854 757.888 124.894 757.715 125.76L675.815 124.98C675.815 125.674 675.815 126.28 675.815 126.8C675.815 143.787 679.715 157.134 687.515 166.84C695.315 176.547 706.235 181.4 720.275 181.4C732.062 181.4 743.675 177.587 755.115 169.96C756.848 172.04 758.148 174.034 759.015 175.94C744.282 192.06 727.122 200.12 707.535 200.12ZM676.595 115.36L730.415 114.32C730.588 113.974 730.675 113.54 730.675 113.02C730.675 112.327 730.675 111.894 730.675 111.72C730.675 102.36 728.595 94.5602 724.435 88.3202C720.448 82.0802 714.468 78.9602 706.495 78.9602C699.042 78.9602 692.542 81.9935 686.995 88.0602C681.448 94.1269 677.982 103.227 676.595 115.36Z" fill="black"/>
<path d="M824.293 197.26C819.267 197.26 814.153 197.174 808.953 197C803.753 196.827 797.947 196.74 791.533 196.74C785.12 196.74 779.4 196.827 774.373 197C769.347 197.174 764.233 197.26 759.033 197.26C758.513 194.487 758.513 191.8 759.033 189.2C764.927 188.854 769.26 188.334 772.033 187.64C774.807 186.774 776.626 185.04 777.493 182.44C778.36 179.84 778.793 175.68 778.793 169.96V39.7002C778.793 34.3269 778.273 30.3402 777.233 27.7402C776.367 24.9669 774.373 23.0602 771.253 22.0202C768.307 20.8069 763.8 19.9402 757.733 19.4202C757.213 17.1669 757.213 14.8269 757.733 12.4002C764.667 11.5335 771.773 10.2335 779.053 8.5002C786.333 6.59353 793.787 3.99353 801.413 0.700195L805.833 2.26021C805.66 6.07353 805.487 10.4069 805.313 15.2602C805.313 20.1135 805.313 25.4002 805.313 31.1202V167.36C805.313 174.12 805.66 178.974 806.353 181.92C807.22 184.867 808.953 186.774 811.553 187.64C814.327 188.334 818.573 188.854 824.293 189.2C824.64 191.8 824.64 194.487 824.293 197.26Z" fill="black"/>
<path d="M881.491 200.12C869.185 200.12 858.785 197.26 850.291 191.54C841.798 185.82 835.298 178.194 830.791 168.66C826.458 158.954 824.291 148.294 824.291 136.68C824.291 124.72 826.545 113.627 831.051 103.4C835.731 93.1735 842.491 84.9402 851.331 78.7002C860.171 72.2869 870.918 69.0802 883.571 69.0802C898.825 69.0802 910.698 73.6735 919.191 82.8602C927.858 91.8735 932.191 103.574 932.191 117.96C932.191 119.694 932.105 121.254 931.931 122.64C931.931 123.854 931.845 124.894 931.671 125.76L849.771 124.98C849.771 125.674 849.771 126.28 849.771 126.8C849.771 143.787 853.671 157.134 861.471 166.84C869.271 176.547 880.191 181.4 894.231 181.4C906.018 181.4 917.631 177.587 929.071 169.96C930.804 172.04 932.105 174.034 932.971 175.94C918.238 192.06 901.078 200.12 881.491 200.12ZM850.551 115.36L904.371 114.32C904.544 113.974 904.631 113.54 904.631 113.02C904.631 112.327 904.631 111.894 904.631 111.72C904.631 102.36 902.551 94.5602 898.391 88.3202C894.405 82.0802 888.425 78.9602 880.451 78.9602C872.998 78.9602 866.498 81.9935 860.951 88.0602C855.405 94.1269 851.938 103.227 850.551 115.36Z" fill="black"/>
<path d="M952.229 263.3C947.549 263.3 943.909 261.914 941.309 259.14C938.883 256.54 937.669 253.42 937.669 249.78C937.669 244.927 940.269 240.16 945.469 235.48C950.669 230.974 959.163 228.72 970.949 228.72C973.203 224.734 975.369 220.4 977.449 215.72C979.703 211.214 982.303 205.58 985.249 198.82C983.343 193.967 980.916 187.727 977.969 180.1C975.023 172.474 971.643 164.067 967.829 154.88C964.189 145.52 960.463 135.9 956.649 126.02C952.836 115.967 949.109 106.26 945.469 96.9002C943.389 91.3535 941.049 87.5402 938.449 85.4602C936.023 83.3802 931.256 81.9935 924.149 81.3002C923.629 78.8735 923.629 76.1869 924.149 73.2402C929.176 73.2402 934.289 73.3269 939.489 73.5002C944.689 73.6735 950.063 73.7602 955.609 73.7602C960.636 73.7602 966.096 73.6735 971.989 73.5002C977.883 73.3269 982.909 73.2402 987.069 73.2402C987.416 75.8402 987.416 78.5269 987.069 81.3002C981.176 81.6469 977.016 82.2535 974.589 83.1202C972.336 83.9869 971.209 85.7202 971.209 88.3202C971.209 90.7469 972.076 94.4735 973.809 99.5002C978.316 111.807 982.649 123.16 986.809 133.56C991.143 143.96 995.476 154.62 999.809 165.54C1005.36 152.887 1010.21 141.534 1014.37 131.48C1018.7 121.427 1023.04 110.94 1027.37 100.02C1029.28 94.9935 1030.23 91.2669 1030.23 88.8402C1030.23 86.4135 1028.93 84.6802 1026.33 83.6402C1023.73 82.6002 1019.14 81.8202 1012.55 81.3002C1012.03 78.5269 1012.03 75.8402 1012.55 73.2402C1016.88 73.2402 1021.3 73.3269 1025.81 73.5002C1030.49 73.6735 1035.43 73.7602 1040.63 73.7602C1044.1 73.7602 1047.82 73.6735 1051.81 73.5002C1055.97 73.3269 1059.7 73.2402 1062.99 73.2402C1063.51 75.8402 1063.51 78.5269 1062.99 81.3002C1055.71 81.8202 1050.77 83.4669 1048.17 86.2402C1045.57 88.8402 1043.14 92.8269 1040.89 98.2002L996.429 201.94C995.563 204.02 994.003 207.487 991.749 212.34C989.496 217.367 987.069 222.48 984.469 227.68C982.043 233.054 979.963 237.474 978.229 240.94C973.896 249.434 969.649 255.24 965.489 258.36C961.329 261.654 956.909 263.3 952.229 263.3Z" fill="black"/>
</svg>
